<svg width="32" height="32" viewBox="0 0 32 32" fill="none" xmlns="http://www.w3.org/2000/svg">
<path d="M4.03003 3.96997L28.03 27.97M4.03003 3.96997V11.0306V12.0306M4.03003 3.96997H10.4695L11.4685 3.96997L11.97 3.96997M28.03 27.97L20.4688 27.97L19.9688 27.97M28.03 27.97L28.03 23.0306L28.03 22.0306L28.03 21.0306L28.03 20.0306" stroke="#223560" stroke-width="3"/>
<path d="M3.96967 27.9697L27.9697 3.96967M3.96967 27.9697L3.96967 21.0303L3.96967 20.0303M3.96967 27.9697H10.0312L11.0312 27.9697L12.0312 27.9697M27.9697 3.96967L22.5302 3.96966L20.5312 3.96966L27.9697 3.96967ZM27.9697 3.96967L27.9697 9.53033L27.9697 11.0303" stroke="#223560" stroke-width="3"/>
</svg>
